<svg xmlns="http://www.w3.org/2000/svg" xmlns:xlink="http://www.w3.org/1999/xlink" x="0px" y="0px" viewBox="0 0 85.5 94.3" style="enable-background:new 0 0 85.5 94.3;" xml:space="preserve"><style type="text/css">	.pet-plate1{fill:currentColor;}</style>	<g class="pet-plate0">		<path class="pet-plate1" d="M81.4,38.4c-1.6-6-6.5-12-13.5-16.4c-7.4-4.7-15.9-7.2-24.6-7.2c-5,0-9.9,0.9-14.7,2.5   c-0.1-0.5-0.1-1,0-1.5c0.4-2.5,0.2-9-2.9-12.8c-1.4-1.8-3.5-2.9-5.8-3c-7.7-0.4-8.5,6.1-8.7,9.5c-0.4,0-0.9,0-1.3-0.1   C7.1,9,4.3,9.8,2.3,11.6c-1.7,1.6-2.5,4-2.2,6.4c0.2,2.6,1.6,4.9,3.8,6.3c2.5,1.6,5.8,1.9,9.2,0.8c0.4,0,0.7,0.1,1,0.2   C9.6,29,6.5,33.4,5.5,38c-0.1,0.5-0.3,1.1-0.4,1.9c-2,9-3.9,17.7-3.9,21.3c0,18.3,18.9,33.1,42.2,33.1s42.2-14.8,42.2-33.1   C85.5,57.2,82.2,41.6,81.4,38.4 M19.1,61.8c-0.1-0.1-0.2-0.2-0.4-0.4l0,0C18.9,61.6,19,61.7,19.1,61.8 M18.1,60.8L18.1,60.8   c-0.1-0.1-0.2-0.2-0.3-0.3l-0.1-0.1c0.2,0.2,0.4,0.5,0.7,0.7l0,0L18.3,61C18.3,60.9,18.2,60.8,18.1,60.8 M14.2,47.6   c0-0.3,0-0.5,0-0.8C14.2,47.1,14.2,47.3,14.2,47.6 M16.5,53.8c0.2-0.4,0.5-0.8,0.7-1.2c0.2-0.3,0.3-0.5,0.5-0.8   c0.2-0.2,0.3-0.4,0.5-0.6c0.1-0.2,0.2-0.3,0.4-0.5c0.2-0.2,0.4-0.5,0.6-0.7c0.4-0.5,0.8-0.9,1.3-1.4c0.2-0.2,0.3-0.3,0.5-0.5   c0.3-0.3,0.6-0.5,0.9-0.8c0.4-0.3,0.7-0.6,1.1-0.9c0.1-0.1,0.3-0.2,0.4-0.3c0.7-0.5,1.3-0.9,2.1-1.3c0.3-0.2,0.6-0.3,0.9-0.5   c0.1-0.1,0.3-0.2,0.4-0.2c0.3-0.2,0.6-0.3,0.9-0.5c0.5-0.3,1.1-0.5,1.7-0.8c0.1-0.1,0.3-0.1,0.4-0.2c0.4-0.2,0.9-0.3,1.3-0.5   l2.1,2.2c0.1,0.1,0.1,0.1,0.2,0.2c0,0,1.6,1.4,1.4,2.9c-1.4,10.5,3.6,13.2,6.7,13.9c0.2,0,0.3,0.1,0.5,0.1   c4.5,0.8,7.1-0.9,8.2-2.1c1.5-1.5,2.2-3.6,1.8-5.7c-0.3-1.2-0.3-2.5,0-3.7c0.2,0,0.5,0.1,0.7,0.2c2.6,0.8,5.4,0.3,7.4-1.5   c1-0.9,1.7-2,2.1-3.2c0.7,0.5,1.4,0.9,2,1.4c0.2,0.2,0.4,0.3,0.6,0.5c0.4,0.3,0.7,0.6,1.1,0.9c0.1,0.1,0.2,0.2,0.3,0.3   c0.5,0.5,1,1,1.4,1.5c0.5,0.5,0.9,1.1,1.3,1.6c0.2,0.2,0.3,0.5,0.5,0.8c0.2,0.4,0.5,0.8,0.7,1.2c0.1,0.3,0.3,0.5,0.4,0.8   c-0.1,0.1-0.1,0.3-0.2,0.4c-0.1,0.3-0.3,0.5-0.4,0.8c-0.2,0.4-0.5,0.8-0.7,1.1c-0.2,0.2-0.3,0.5-0.5,0.7l-0.1,0.1   c-0.2,0.2-0.3,0.4-0.5,0.7c-0.2,0.2-0.4,0.4-0.5,0.6c0,0-0.1,0.1-0.1,0.1c-0.3,0.3-0.5,0.6-0.8,0.9c-0.1,0.1-0.2,0.2-0.3,0.3   c-0.1,0.1-0.3,0.3-0.4,0.4c-0.3,0.3-0.6,0.6-0.9,0.9c-0.2,0.2-0.4,0.3-0.6,0.5c-0.1,0.1-0.2,0.1-0.2,0.2c-0.2,0.2-0.4,0.3-0.6,0.5   s-0.4,0.3-0.6,0.4s-0.4,0.3-0.6,0.4s-0.4,0.3-0.6,0.4c-0.2,0.1-0.4,0.3-0.6,0.4c-0.2,0.1-0.4,0.2-0.6,0.3   c-0.1,0.1-0.2,0.1-0.3,0.2c-0.2,0.1-0.4,0.2-0.6,0.3s-0.5,0.2-0.7,0.3s-0.5,0.2-0.7,0.3c-0.2,0.1-0.4,0.2-0.6,0.2   c-0.4,0.2-0.8,0.3-1.2,0.5c-0.2,0.1-0.3,0.1-0.5,0.2c-0.1,0.1-0.3,0.1-0.4,0.1c-0.2,0.1-0.4,0.1-0.6,0.2s-0.4,0.1-0.6,0.2   l-0.2,0.1l-0.2,0.1c-0.2,0.1-0.4,0.1-0.6,0.2c-0.2,0.1-0.5,0.1-0.7,0.2c-0.1,0-0.2,0.1-0.3,0.1c-0.1,0-0.1,0-0.2,0   c-0.6,0.2-1.3,0.3-1.9,0.4l-0.4,0.1c-0.6,0.1-1.3,0.2-2,0.3h0c-0.2,0-0.3,0-0.5,0.1c-0.5,0.1-1,0.1-1.5,0.1l-0.4,0   c-0.3,0-0.7,0-1,0s-0.7,0-1,0l0,0c-0.3,0-0.7,0-1,0c-0.3,0-0.7,0-1,0l-0.4,0c-0.3,0-0.7,0-1-0.1s-0.7-0.1-1-0.1   c-0.7-0.1-1.3-0.2-2-0.3l-0.4-0.1c-0.2,0-0.4-0.1-0.5-0.1c-0.3-0.1-0.7-0.1-1-0.2c-0.1,0-0.3-0.1-0.4-0.1l-0.1,0l-0.1,0   c-0.6-0.1-1.1-0.3-1.7-0.5c-0.1,0-0.3-0.1-0.4-0.1s-0.3-0.1-0.4-0.1c-0.4-0.1-0.9-0.3-1.3-0.4c-0.1-0.1-0.3-0.1-0.4-0.2   c-0.2-0.1-0.4-0.2-0.6-0.3c-0.2-0.1-0.4-0.2-0.6-0.3l-0.4-0.2c-0.1,0-0.1,0-0.2-0.1c-0.4-0.2-0.8-0.4-1.2-0.6   c-0.1,0-0.2-0.1-0.2-0.1c-0.2-0.1-0.4-0.2-0.6-0.3c-0.3-0.2-0.6-0.3-0.9-0.5c-0.2-0.1-0.4-0.2-0.6-0.4c-0.4-0.3-0.8-0.5-1.2-0.8   c-0.2-0.1-0.4-0.3-0.6-0.4c-0.1-0.1-0.3-0.2-0.4-0.3c-0.1-0.1-0.3-0.2-0.4-0.3c-0.2-0.2-0.4-0.3-0.6-0.5c-0.2-0.1-0.3-0.3-0.5-0.4   c-0.2-0.1-0.3-0.3-0.5-0.4c-0.1-0.1-0.1-0.1-0.2-0.2s-0.1-0.1-0.2-0.2c-0.1-0.1-0.3-0.3-0.4-0.4c-0.1-0.1-0.3-0.3-0.4-0.4   c-0.1-0.1-0.2-0.2-0.3-0.3c0,0-0.1-0.1-0.1-0.1c-0.4-0.4-0.7-0.8-1-1.2L18,57.7l-0.1-0.1c-0.3-0.4-0.5-0.7-0.8-1.1   c-0.2-0.3-0.3-0.5-0.5-0.8c-0.2-0.4-0.4-0.8-0.6-1.2C16.2,54.3,16.3,54,16.5,53.8 M72.4,46.8L72.4,46.8c0,0.1,0,0.3,0,0.4   C72.4,47.1,72.4,47,72.4,46.8 M67.5,61.8L67.5,61.8L67.5,61.8L67.5,61.8L67.5,61.8 M18.5,61.2L18.5,61.2c0,0,0.1,0.1,0.2,0.2l0,0   l-0.1-0.1L18.5,61.2 M26,66.7L26,66.7c0.2,0.1,0.4,0.2,0.6,0.3c-0.4-0.2-0.8-0.4-1.1-0.6C25.6,66.5,25.8,66.6,26,66.7 M66,63.2   L66,63.2c0.1-0.1,0.2-0.2,0.3-0.3C66.2,63,66.1,63.1,66,63.2L66,63.2 M70.5,58.3L70.5,58.3L70.5,58.3z M71.8,56.2L71.8,56.2   L71.8,56.2L71.8,56.2 M12.5,21.3c-0.2,0-0.3,0-0.4,0.1c-2.5,0.8-4.7,0.7-6.3-0.3c-1.2-0.8-2-2.1-2.1-3.6c-0.2-1.2,0.2-2.4,1.1-3.3   c1.2-1,2.9-1.5,4.5-1.2c2.6,0.3,5.2,0.1,7.7-0.7c1-0.3,1.5-1.4,1.2-2.4c-0.3-1-1.4-1.5-2.4-1.2c0,0-0.3,0.1-0.9,0.2   c0.3-3.8,1.3-5.5,4.7-5.3c1.2,0,2.3,0.6,3.1,1.6c2.1,2.6,2.5,7.8,2.1,9.9c-0.2,1.1-0.1,2.3,0.2,3.4c0.4,1.2,1,2.3,1.9,3.3   c0.1,0.1,0.2,0.2,0.3,0.3c0.4,0.4,0.9,1,1.4,1.6c0.8,0.9,1.7,1.9,2.8,3c3.1,3.3,7,7.3,10,9.9l0,0c1.1,1.1,2.3,2,3.7,2.7   c0.4,0.2,0.9,0.2,1.3,0c3.6-1.3,7.4-1.2,9.9,0.4c1.2,0.6,2,1.7,2.4,3c0.1,0.3,0.1,0.7,0,1.1c-0.1,0.9-0.5,1.7-1.2,2.3   c-1.1,0.9-2.5,1.2-3.9,0.7c-0.9-0.3-1.8-0.4-2.8-0.4h0c-2.3,0.1-4.5,1-6.3,2.5c-0.8,0.7-0.8,1.9-0.1,2.6c0.7,0.8,1.9,0.8,2.6,0.1   c0,0,0,0,0.1-0.1c0.2-0.2,0.5-0.4,0.7-0.5c-0.1,1.2,0,2.5,0.3,3.7c0.1,0.8-0.2,1.6-0.8,2.2c-1.1,1.1-2.9,1.5-5.2,1   c-4.1-0.9-4.3-5.8-3.8-9.7c0.4-3.3-2-5.7-2.6-6.2l-0.7-0.8l0,0L32.2,38c-2.3-2.4-5.2-5.6-7.6-8.1c-1-1.1-1.9-2-2.6-2.8l-0.5-0.6   c-0.4-0.4-0.8-0.9-1.2-1.2c-0.9-0.9-1.9-1.8-2.9-2.6C16,21.7,14.3,21.2,12.5,21.3 M79.1,71.9c-0.3,0.7-0.7,1.3-1.1,2   c-0.3,0.4-0.6,0.8-0.8,1.3c-0.3,0.4-0.6,0.8-0.9,1.2c-0.3,0.4-0.7,0.8-1,1.2c-0.2,0.2-0.3,0.4-0.5,0.6c-0.4,0.4-0.7,0.8-1.1,1.1   s-0.8,0.7-1.2,1.1c-0.2,0.2-0.4,0.4-0.6,0.5c-1.1,0.9-2.2,1.7-3.3,2.5C68,83.7,67.5,84,67,84.3c-0.7,0.4-1.5,0.9-2.2,1.2   c-0.3,0.1-0.5,0.3-0.8,0.4c-0.8,0.4-1.6,0.7-2.4,1.1c-1.1,0.5-2.2,0.9-3.4,1.2c-9.7,3.1-20.2,3.1-29.9,0c-1.2-0.4-2.3-0.8-3.4-1.2   c-0.8-0.3-1.6-0.7-2.4-1.1c-0.3-0.1-0.5-0.3-0.8-0.4c-0.8-0.4-1.5-0.8-2.2-1.2c-0.5-0.3-1-0.6-1.4-0.9c-1.1-0.8-2.2-1.6-3.3-2.5   c-0.2-0.2-0.4-0.3-0.6-0.5c-0.4-0.4-0.8-0.7-1.2-1.1c-0.4-0.4-0.8-0.7-1.1-1.1c-0.2-0.2-0.4-0.4-0.5-0.6c-0.3-0.4-0.7-0.8-1-1.2   c-0.3-0.4-0.6-0.8-0.9-1.2c-0.3-0.4-0.6-0.8-0.9-1.3c-0.4-0.6-0.8-1.3-1.1-2c-0.2-0.4-0.4-0.9-0.6-1.3c-1.3-3-2-6.2-2-9.4   c0-0.7,0.1-1.5,0.2-2.2c0-0.2,0-0.4,0.1-0.6c0.2-1.4,0.5-3.2,0.9-5c0.2-1,0.4-2,0.6-3c0.1-0.5,0.2-1,0.3-1.5L7,48.5   C7,48.2,7.1,48,7.1,47.8c0.2-1,0.4-2,0.6-2.9c0.1-0.3,0.2-0.7,0.2-1c0.1-0.4,0.2-0.8,0.3-1.2l0.1-0.6c0.1-0.5,0.2-0.9,0.3-1.3   l0.2-1L9,39.3l0-0.2l0-0.2c0.6-2.4,1.7-4.7,3.3-6.7c0.4-0.5,0.8-1,1.2-1.4c0.5-0.6,1.1-1.2,1.8-1.7c0.3-0.3,0.6-0.6,1-0.8   c0.3-0.2,0.5-0.4,0.8-0.6c0.5,0.4,1,1,1.5,1.6l0.3,0.3c-0.4,0.3-0.7,0.6-1.1,1c-0.6,0.6-1.1,1.1-1.7,1.7c-0.3,0.3-0.5,0.6-0.8,0.9   c-0.1,0.2-0.2,0.3-0.4,0.5c-0.2,0.3-0.5,0.6-0.7,0.9c-0.1,0.2-0.2,0.3-0.3,0.5c-2.4,3.5-3.7,7.7-3.7,11.9c0,1.5,0.2,3,0.5,4.4   c0.1,0.5,0.2,1,0.4,1.4c0.2,0.5,0.3,1,0.5,1.5c0.1,0.3,0.3,0.7,0.4,1c0,0,0,0,0,0.1c0,0,0,0,0,0.1c0,0.1,0.1,0.2,0.2,0.3l0.1,0.1   c0.1,0.3,0.3,0.6,0.4,0.9c0.1,0.2,0.2,0.4,0.3,0.5c0.3,0.6,0.7,1.2,1.1,1.8c0.1,0.1,0.2,0.2,0.2,0.3c0.3,0.5,0.7,0.9,1,1.3   l0.2,0.2c1.3,1.6,2.8,3,4.4,4.2c1.1,0.9,2.3,1.7,3.5,2.4c0.6,0.4,1.3,0.7,1.9,1c0.4,0.2,0.9,0.4,1.3,0.6c0.7,0.3,1.4,0.6,2.1,0.9   l0.2,0.1c0.3,0.1,0.6,0.2,0.9,0.3l0.3,0.1l0.2,0.1l0.1,0c0.2,0.1,0.5,0.1,0.7,0.2c0.2,0.1,0.5,0.1,0.7,0.2c0.1,0,0.1,0,0.2,0.1   c0.2,0.1,0.5,0.1,0.7,0.2c0.1,0,0.3,0.1,0.4,0.1c0.2,0.1,0.4,0.1,0.6,0.1c0.3,0.1,0.5,0.1,0.8,0.2c0.2,0,0.5,0.1,0.7,0.1   c0.3,0.1,0.5,0.1,0.8,0.1c0.2,0,0.4,0.1,0.7,0.1s0.4,0.1,0.7,0.1s0.4,0.1,0.7,0.1c0.2,0,0.4,0,0.6,0.1c0.3,0,0.6,0.1,0.9,0.1   c0.1,0,0.2,0,0.3,0l0.3,0c0.3,0,0.6,0,0.9,0.1c0.2,0,0.4,0,0.6,0c0.4,0,0.9,0,1.3,0h0.1h0.1h0.1h0.1c0.4,0,0.9,0,1.3,0   c0.2,0,0.4,0,0.6,0c0.3,0,0.6,0,0.9-0.1c0.2,0,0.4,0,0.6,0c0.3,0,0.6-0.1,0.9-0.1c0.2,0,0.4,0,0.6-0.1c0.5-0.1,0.9-0.1,1.3-0.2   l0,0c0.2,0,0.4-0.1,0.6-0.1c0.3,0,0.5-0.1,0.8-0.1c0.2,0,0.4-0.1,0.6-0.1c0.3-0.1,0.5-0.1,0.8-0.2c0.2,0,0.4-0.1,0.6-0.1   c0.2,0,0.3-0.1,0.5-0.1l0.3-0.1c0.2,0,0.3-0.1,0.5-0.1l0.1,0c0.2-0.1,0.4-0.1,0.5-0.2c0.3-0.1,0.6-0.2,0.9-0.3l0.2-0.1   c0.3-0.1,0.5-0.2,0.8-0.3c0.2-0.1,0.3-0.1,0.4-0.2l0.1,0l0.1,0c0.2-0.1,0.5-0.2,0.7-0.3c0.7-0.3,1.4-0.6,2-0.9   c0.4-0.2,0.9-0.4,1.3-0.7c0.2-0.1,0.4-0.2,0.6-0.3c0.6-0.4,1.3-0.7,1.9-1.1c0.2-0.1,0.4-0.3,0.6-0.4c0.6-0.4,1.2-0.8,1.7-1.3   c0.6-0.4,1.1-0.9,1.6-1.3c0.2-0.2,0.3-0.3,0.5-0.5c0.3-0.3,0.7-0.6,1-1c0.6-0.6,1.1-1.2,1.6-1.8c0.2-0.3,0.4-0.5,0.6-0.8   c0.7-0.9,1.3-1.8,1.8-2.8c0.2-0.3,0.3-0.6,0.5-0.9c0-0.1,0.1-0.2,0.1-0.3l0-0.1c0-0.1,0.1-0.2,0.1-0.3l0-0.1c0,0,0,0,0-0.1   c0,0,0,0,0-0.1c0.2-0.5,0.4-1,0.6-1.5c0.4-1.2,0.7-2.4,0.9-3.6c0.1-0.4,0.1-0.7,0.1-1.1c0-0.3,0.1-0.7,0.1-1c0-0.4,0-0.8,0-1.1   c0-2.6-0.5-5.2-1.5-7.7c-0.2-0.4-0.3-0.8-0.5-1.2c-0.2-0.4-0.4-0.8-0.6-1.2c-0.3-0.6-0.7-1.1-1-1.7c-0.2-0.4-0.5-0.7-0.8-1.1   c-1.8-2.4-4-4.5-6.4-6.3c-0.4-0.3-0.8-0.5-1.2-0.8c-0.4-0.3-0.8-0.5-1.2-0.8c-6-3.4-12.8-5.2-19.6-5.1c-0.3,0-0.6,0-0.8,0   c-0.6,0-1.1,0-1.7,0.1c-1.4,0.1-2.7,0.2-4.1,0.5c-0.5,0.1-1.1,0.2-1.6,0.3s-1,0.2-1.6,0.3c-0.3,0.1-0.6,0.2-0.9,0.2   c-0.6-0.6-1.2-1.3-1.8-1.9l0.2-0.1c7.8-2.4,16-2.5,23.9-0.3c0.5,0.1,1,0.3,1.4,0.4c3,1,5.8,2.3,8.5,3.9c0.4,0.2,0.8,0.5,1.2,0.7   c0.6,0.4,1.1,0.8,1.7,1.1s1.1,0.8,1.6,1.2c0.2,0.1,0.3,0.3,0.5,0.4c0.5,0.4,1,0.8,1.4,1.3c0.2,0.1,0.3,0.3,0.4,0.4l0,0   c0.3,0.3,0.6,0.6,0.8,0.9c0.1,0.2,0.3,0.3,0.4,0.5s0.3,0.3,0.4,0.4c0.3,0.3,0.5,0.6,0.8,0.9c0.2,0.3,0.5,0.6,0.7,0.9   c0.5,0.7,0.9,1.4,1.3,2.1c0.1,0.2,0.2,0.3,0.3,0.5c0.2,0.3,0.3,0.6,0.4,0.9c0.1,0.2,0.2,0.4,0.3,0.7c0.3,0.6,0.5,1.3,0.7,2   c0.2,0.8,0.5,2.2,0.9,4c0.1,0.2,0.1,0.5,0.2,0.7s0.1,0.5,0.2,0.8l0.1,0.4c0.1,0.3,0.1,0.5,0.2,0.8c0.1,0.3,0.1,0.5,0.2,0.8   c0.1,0.3,0.1,0.6,0.2,0.8c0.3,1.4,0.6,2.9,0.8,4.3c0.1,0.3,0.1,0.6,0.2,0.8c0.2,0.8,0.3,1.7,0.4,2.5c0.1,0.5,0.2,1,0.2,1.5   c0.1,0.4,0.1,0.7,0.2,1.1c0,0.2,0.1,0.4,0.1,0.7c0.1,0.7,0.2,1.4,0.2,1.9c0,0.1,0,0.3,0,0.4c0,0.1,0,0.2,0,0.4   c0,3.2-0.7,6.4-2,9.4C79.5,71,79.3,71.5,79.1,71.9"></path>		<path class="pet-plate1" d="M26.9,74.2c-0.1-0.6-0.5-1.1-1.1-1.4c-0.3-0.1-0.6-0.3-1-0.4c-0.9-0.5-1.9-0.9-2.7-1.4   c-0.7-0.4-1.5-0.3-2.1,0.1c0,0-0.1,0.1-0.1,0.1c-0.1,0.1-0.2,0.2-0.2,0.3c0,0.1-0.1,0.1-0.1,0.2c0,0.1-0.1,0.1-0.1,0.2   c-0.3,0.7-0.1,1.6,0.5,2.2c0.1,0.1,0.2,0.2,0.3,0.2c0.3,0.2,0.6,0.4,1,0.5c1,0.5,2,1,3.1,1.5c0.1,0.1,0.3,0.1,0.4,0.1   c0,0,0.1,0,0.1,0c1,0.1,2-0.6,2.1-1.7c0-0.1,0-0.2,0-0.3C26.9,74.3,26.9,74.3,26.9,74.2 M21.2,72.6L21.2,72.6   c0.1,0.1,0.3,0.2,0.4,0.3C21.5,72.8,21.4,72.7,21.2,72.6"></path>		<path class="pet-plate1" d="M18.5,68.9c-0.1-0.3-0.3-0.5-0.6-0.7c-0.2-0.1-0.4-0.3-0.5-0.4c-0.5-0.4-1-0.9-1.5-1.3   c-0.3-0.3-0.6-0.6-0.9-0.8c-0.3-0.3-0.5-0.5-0.8-0.8l-0.1-0.1c-0.4-0.5-0.8-0.9-1.2-1.4c-0.1-0.2-0.3-0.4-0.4-0.5   c-0.1-0.1-0.1-0.2-0.2-0.3c-0.1-0.2-0.2-0.3-0.3-0.5C12.1,62,12,61.8,12,61.7c-0.1-0.2-0.3-0.4-0.4-0.6c-0.1-0.1-0.1-0.2-0.2-0.3   c-0.1-0.2-0.2-0.4-0.3-0.5c-0.1-0.3-0.3-0.5-0.3-0.7c-0.1-0.3-0.3-0.6-0.4-0.9c-0.1-0.4-0.4-0.8-0.8-1c-0.1,0-0.1-0.1-0.2-0.1   c-0.1-0.1-0.3-0.1-0.5-0.1c-0.1,0-0.1,0-0.2,0c-0.1,0-0.2,0-0.4,0c-0.3,0-0.6,0.1-0.9,0.3c-0.1,0.1-0.3,0.2-0.4,0.4   c0,0-0.1,0.1-0.1,0.1c0,0,0,0.1-0.1,0.1c-0.1,0.1-0.1,0.2-0.2,0.4c-0.1,0.4-0.1,0.7,0,1.1c0.4,1.1,1,2.3,1.6,3.3   c0.2,0.3,0.3,0.5,0.5,0.8c0.4,0.5,0.8,1.1,1.3,1.7c0.1,0.2,0.2,0.3,0.4,0.5c0.3,0.3,0.5,0.6,0.8,1c0.6,0.6,1.2,1.3,1.9,2   s1.5,1.4,2.4,2c0,0,0.1,0.1,0.1,0.1s0.1,0.1,0.1,0.1c0.9,0.5,2,0.2,2.5-0.8c0.2-0.3,0.3-0.7,0.2-1.1   C18.6,69.2,18.6,69.1,18.5,68.9 M14,67.1c0.2,0.2,0.5,0.5,0.7,0.7C14.4,67.6,14.2,67.4,14,67.1 M15.1,68.2   c0.3,0.3,0.6,0.5,0.9,0.8C15.7,68.7,15.4,68.4,15.1,68.2"></path>		<path class="pet-plate1" d="M43.3,81.1c-1.8,0-3.5,2.2-3.7,4.2C39.3,87.7,41,88,43.3,88s4-0.3,3.7-2.6   C46.8,83.3,45.1,81.1,43.3,81.1"></path>		<path class="pet-plate1" d="M41.5,80.4c1.2-0.1,2.1-1.2,1.9-2.4c-0.1-1.2-1.2-2.1-2.4-1.9c-1.2,0.1-2.1,1.2-1.9,2.4   c0,0.1,0,0.2,0,0.2C39.3,79.9,40.3,80.6,41.5,80.4"></path>		<path class="pet-plate1" d="M39.5,80.9c-0.6-0.8-1.7-1.1-2.5-0.5c-0.8,0.6-1.1,1.7-0.5,2.5c0.5,0.8,1.5,1,2.4,0.6   C39.7,83,40,81.9,39.5,80.9"></path>		<path class="pet-plate1" d="M45.2,80.4c1.1,0.4,2.4-0.2,2.8-1.3c0.4-1.1-0.2-2.4-1.3-2.8c-1.1-0.4-2.4,0.2-2.8,1.3   c0,0.1-0.1,0.2-0.1,0.2C43.4,79,44.1,80.1,45.2,80.4"></path>		<path class="pet-plate1" d="M49.7,80c-0.9-0.6-2.2-0.4-2.8,0.6c-0.6,0.9-0.4,2.2,0.6,2.8c0.9,0.6,2.2,0.4,2.8-0.6   c0-0.1,0.1-0.1,0.1-0.2C50.9,81.7,50.6,80.5,49.7,80"></path>	</g></svg>